<mxfile host="app.diagrams.net" modified="2022-11-30T21:31:00.019Z" agent="5.0 (Macintosh; Intel Mac OS X 10_15_7) AppleWebKit/605.1.15 (KHTML, like Gecko) Version/15.4 Safari/605.1.15" version="20.6.0" etag="brxXZEMAEe0dtaVHlmJg" type="github">
  <diagram id="3W75zOB1H64UKD_i0DfE" name="Page-1">
    <mxGraphModel dx="3766" dy="2365" grid="1" gridSize="10" guides="1" tooltips="1" connect="1" arrows="1" fold="1" page="1" pageScale="1" pageWidth="850" pageHeight="1100" math="0" shadow="0">
      <root>
        <mxCell id="0" />
        <mxCell id="1" parent="0" />
        <mxCell id="i0heIdK5ktboHPrzZAo5-1" value="&lt;b&gt;Challenge:&lt;/b&gt; Complete a reading comprehension assessment" style="rounded=1;whiteSpace=wrap;html=1;fillColor=#dae8fc;strokeColor=#6c8ebf;" vertex="1" parent="1">
          <mxGeometry x="90" y="25" width="250" height="60" as="geometry" />
        </mxCell>
        <mxCell id="i0heIdK5ktboHPrzZAo5-13" style="edgeStyle=orthogonalEdgeStyle;rounded=0;orthogonalLoop=1;jettySize=auto;html=1;fontSize=11;" edge="1" parent="1" source="i0heIdK5ktboHPrzZAo5-3" target="i0heIdK5ktboHPrzZAo5-12">
          <mxGeometry relative="1" as="geometry" />
        </mxCell>
        <mxCell id="i0heIdK5ktboHPrzZAo5-14" style="edgeStyle=orthogonalEdgeStyle;rounded=0;orthogonalLoop=1;jettySize=auto;html=1;fontSize=11;strokeWidth=3;" edge="1" parent="1" source="i0heIdK5ktboHPrzZAo5-3" target="i0heIdK5ktboHPrzZAo5-5">
          <mxGeometry relative="1" as="geometry">
            <Array as="points">
              <mxPoint x="420" y="290" />
            </Array>
          </mxGeometry>
        </mxCell>
        <mxCell id="i0heIdK5ktboHPrzZAo5-3" value="Is logged In?" style="rhombus;whiteSpace=wrap;html=1;rounded=0;fillColor=#fff2cc;strokeColor=#d6b656;" vertex="1" parent="1">
          <mxGeometry x="360" y="160" width="120" height="90" as="geometry" />
        </mxCell>
        <mxCell id="i0heIdK5ktboHPrzZAo5-50" style="edgeStyle=orthogonalEdgeStyle;rounded=0;orthogonalLoop=1;jettySize=auto;html=1;strokeWidth=3;fontSize=11;endArrow=none;endFill=0;startArrow=none;" edge="1" parent="1" source="i0heIdK5ktboHPrzZAo5-47" target="i0heIdK5ktboHPrzZAo5-51">
          <mxGeometry relative="1" as="geometry">
            <mxPoint x="-200" y="600" as="targetPoint" />
          </mxGeometry>
        </mxCell>
        <mxCell id="i0heIdK5ktboHPrzZAo5-153" value="OR" style="edgeLabel;html=1;align=center;verticalAlign=middle;resizable=0;points=[];fontSize=11;" vertex="1" connectable="0" parent="i0heIdK5ktboHPrzZAo5-50">
          <mxGeometry x="0.1538" y="-5" relative="1" as="geometry">
            <mxPoint as="offset" />
          </mxGeometry>
        </mxCell>
        <mxCell id="i0heIdK5ktboHPrzZAo5-4" value="Main menu Page" style="rounded=0;whiteSpace=wrap;html=1;strokeWidth=2;" vertex="1" parent="1">
          <mxGeometry x="10" y="410" width="130" height="60" as="geometry" />
        </mxCell>
        <mxCell id="i0heIdK5ktboHPrzZAo5-25" style="edgeStyle=orthogonalEdgeStyle;rounded=0;orthogonalLoop=1;jettySize=auto;html=1;fontSize=11;" edge="1" parent="1" source="i0heIdK5ktboHPrzZAo5-5" target="i0heIdK5ktboHPrzZAo5-6">
          <mxGeometry relative="1" as="geometry" />
        </mxCell>
        <mxCell id="i0heIdK5ktboHPrzZAo5-5" value="Registration &amp;nbsp;Form" style="rounded=0;whiteSpace=wrap;html=1;" vertex="1" parent="1">
          <mxGeometry x="557.5" y="260" width="120" height="60" as="geometry" />
        </mxCell>
        <mxCell id="i0heIdK5ktboHPrzZAo5-26" style="edgeStyle=orthogonalEdgeStyle;rounded=0;orthogonalLoop=1;jettySize=auto;html=1;exitX=0;exitY=0.5;exitDx=0;exitDy=0;entryX=1;entryY=0.5;entryDx=0;entryDy=0;fontSize=11;" edge="1" parent="1" source="i0heIdK5ktboHPrzZAo5-6" target="i0heIdK5ktboHPrzZAo5-4">
          <mxGeometry relative="1" as="geometry" />
        </mxCell>
        <mxCell id="i0heIdK5ktboHPrzZAo5-28" value="No" style="edgeLabel;html=1;align=center;verticalAlign=middle;resizable=0;points=[];fontSize=11;" vertex="1" connectable="0" parent="i0heIdK5ktboHPrzZAo5-26">
          <mxGeometry x="-0.1556" relative="1" as="geometry">
            <mxPoint as="offset" />
          </mxGeometry>
        </mxCell>
        <mxCell id="i0heIdK5ktboHPrzZAo5-27" style="edgeStyle=orthogonalEdgeStyle;rounded=0;orthogonalLoop=1;jettySize=auto;html=1;exitX=0.5;exitY=1;exitDx=0;exitDy=0;entryX=0.625;entryY=0.033;entryDx=0;entryDy=0;entryPerimeter=0;fontSize=11;" edge="1" parent="1" source="i0heIdK5ktboHPrzZAo5-6" target="i0heIdK5ktboHPrzZAo5-24">
          <mxGeometry relative="1" as="geometry" />
        </mxCell>
        <mxCell id="i0heIdK5ktboHPrzZAo5-29" value="Yes" style="edgeLabel;html=1;align=center;verticalAlign=middle;resizable=0;points=[];fontSize=11;" vertex="1" connectable="0" parent="i0heIdK5ktboHPrzZAo5-27">
          <mxGeometry x="0.1884" relative="1" as="geometry">
            <mxPoint x="1" as="offset" />
          </mxGeometry>
        </mxCell>
        <mxCell id="i0heIdK5ktboHPrzZAo5-6" value="&lt;font style=&quot;font-size: 11px;&quot;&gt;First Time using App or starting lesson?&lt;/font&gt;" style="rhombus;whiteSpace=wrap;html=1;rounded=0;fillColor=#fff2cc;strokeColor=#d6b656;" vertex="1" parent="1">
          <mxGeometry x="530" y="370" width="175" height="140" as="geometry" />
        </mxCell>
        <mxCell id="i0heIdK5ktboHPrzZAo5-72" style="edgeStyle=orthogonalEdgeStyle;rounded=0;orthogonalLoop=1;jettySize=auto;html=1;entryX=0.5;entryY=0;entryDx=0;entryDy=0;strokeWidth=1;fontSize=11;endArrow=classic;endFill=1;" edge="1" parent="1" source="i0heIdK5ktboHPrzZAo5-8" target="i0heIdK5ktboHPrzZAo5-71">
          <mxGeometry relative="1" as="geometry" />
        </mxCell>
        <mxCell id="i0heIdK5ktboHPrzZAo5-8" value="App Opens" style="strokeWidth=2;html=1;shape=mxgraph.flowchart.start_1;whiteSpace=wrap;rounded=1;fillColor=#d5e8d4;strokeColor=#82b366;" vertex="1" parent="1">
          <mxGeometry x="370" y="35" width="100" height="50" as="geometry" />
        </mxCell>
        <mxCell id="i0heIdK5ktboHPrzZAo5-38" style="edgeStyle=orthogonalEdgeStyle;rounded=0;orthogonalLoop=1;jettySize=auto;html=1;entryX=0.75;entryY=0.167;entryDx=0;entryDy=0;entryPerimeter=0;strokeWidth=1;fontSize=11;" edge="1" parent="1" source="i0heIdK5ktboHPrzZAo5-9" target="i0heIdK5ktboHPrzZAo5-32">
          <mxGeometry relative="1" as="geometry">
            <Array as="points">
              <mxPoint x="110" y="790" />
            </Array>
          </mxGeometry>
        </mxCell>
        <mxCell id="i0heIdK5ktboHPrzZAo5-42" value="No" style="edgeLabel;html=1;align=center;verticalAlign=middle;resizable=0;points=[];fontSize=11;" vertex="1" connectable="0" parent="i0heIdK5ktboHPrzZAo5-38">
          <mxGeometry x="-0.0001" y="4" relative="1" as="geometry">
            <mxPoint as="offset" />
          </mxGeometry>
        </mxCell>
        <mxCell id="i0heIdK5ktboHPrzZAo5-40" style="edgeStyle=orthogonalEdgeStyle;rounded=0;orthogonalLoop=1;jettySize=auto;html=1;entryX=0.6;entryY=1;entryDx=0;entryDy=0;entryPerimeter=0;strokeWidth=1;fontSize=11;" edge="1" parent="1" source="i0heIdK5ktboHPrzZAo5-9" target="i0heIdK5ktboHPrzZAo5-4">
          <mxGeometry relative="1" as="geometry" />
        </mxCell>
        <mxCell id="i0heIdK5ktboHPrzZAo5-41" value="Yes" style="edgeLabel;html=1;align=center;verticalAlign=middle;resizable=0;points=[];fontSize=11;" vertex="1" connectable="0" parent="i0heIdK5ktboHPrzZAo5-40">
          <mxGeometry x="-0.0789" y="-3" relative="1" as="geometry">
            <mxPoint as="offset" />
          </mxGeometry>
        </mxCell>
        <mxCell id="i0heIdK5ktboHPrzZAo5-9" value="Know your reading &lt;br&gt;Level" style="rhombus;whiteSpace=wrap;html=1;rounded=0;fillColor=#fff2cc;strokeColor=#d6b656;" vertex="1" parent="1">
          <mxGeometry x="130" y="700" width="120" height="90" as="geometry" />
        </mxCell>
        <mxCell id="i0heIdK5ktboHPrzZAo5-10" value="" style="endArrow=classic;html=1;rounded=0;fontSize=11;exitX=0.5;exitY=1;exitDx=0;exitDy=0;exitPerimeter=0;strokeWidth=3;" edge="1" parent="1" source="i0heIdK5ktboHPrzZAo5-8">
          <mxGeometry width="50" height="50" relative="1" as="geometry">
            <mxPoint x="390" y="660" as="sourcePoint" />
            <mxPoint x="420" y="160" as="targetPoint" />
          </mxGeometry>
        </mxCell>
        <mxCell id="i0heIdK5ktboHPrzZAo5-18" style="edgeStyle=orthogonalEdgeStyle;rounded=0;orthogonalLoop=1;jettySize=auto;html=1;exitX=0.5;exitY=1;exitDx=0;exitDy=0;fontSize=11;" edge="1" parent="1" source="i0heIdK5ktboHPrzZAo5-12" target="i0heIdK5ktboHPrzZAo5-4">
          <mxGeometry relative="1" as="geometry" />
        </mxCell>
        <mxCell id="i0heIdK5ktboHPrzZAo5-23" value="No" style="edgeLabel;html=1;align=center;verticalAlign=middle;resizable=0;points=[];fontSize=11;" vertex="1" connectable="0" parent="i0heIdK5ktboHPrzZAo5-18">
          <mxGeometry x="-0.1077" y="2" relative="1" as="geometry">
            <mxPoint as="offset" />
          </mxGeometry>
        </mxCell>
        <mxCell id="i0heIdK5ktboHPrzZAo5-21" value="Yes" style="edgeStyle=orthogonalEdgeStyle;rounded=0;orthogonalLoop=1;jettySize=auto;html=1;fontSize=11;entryX=0.5;entryY=0;entryDx=0;entryDy=0;" edge="1" parent="1" source="i0heIdK5ktboHPrzZAo5-12" target="i0heIdK5ktboHPrzZAo5-19">
          <mxGeometry relative="1" as="geometry">
            <mxPoint x="-90" y="290" as="targetPoint" />
          </mxGeometry>
        </mxCell>
        <mxCell id="i0heIdK5ktboHPrzZAo5-12" value="Continue Course?" style="rhombus;whiteSpace=wrap;html=1;rounded=0;fontSize=11;fillColor=#fff2cc;strokeColor=#d6b656;" vertex="1" parent="1">
          <mxGeometry x="-30" y="160" width="120" height="90" as="geometry" />
        </mxCell>
        <mxCell id="i0heIdK5ktboHPrzZAo5-19" value="Last Course Page" style="rounded=0;whiteSpace=wrap;html=1;" vertex="1" parent="1">
          <mxGeometry x="-150" y="290" width="120" height="60" as="geometry" />
        </mxCell>
        <mxCell id="i0heIdK5ktboHPrzZAo5-37" style="edgeStyle=orthogonalEdgeStyle;rounded=0;orthogonalLoop=1;jettySize=auto;html=1;strokeWidth=1;fontSize=11;" edge="1" parent="1" source="i0heIdK5ktboHPrzZAo5-24" target="i0heIdK5ktboHPrzZAo5-9">
          <mxGeometry relative="1" as="geometry" />
        </mxCell>
        <mxCell id="i0heIdK5ktboHPrzZAo5-24" value="Intro Questions" style="rounded=0;whiteSpace=wrap;html=1;" vertex="1" parent="1">
          <mxGeometry x="410" y="570" width="120" height="60" as="geometry" />
        </mxCell>
        <mxCell id="i0heIdK5ktboHPrzZAo5-43" style="edgeStyle=orthogonalEdgeStyle;rounded=0;orthogonalLoop=1;jettySize=auto;html=1;entryX=0;entryY=1;entryDx=0;entryDy=0;strokeWidth=1;fontSize=11;" edge="1" parent="1" source="i0heIdK5ktboHPrzZAo5-32" target="i0heIdK5ktboHPrzZAo5-4">
          <mxGeometry relative="1" as="geometry">
            <Array as="points">
              <mxPoint y="870" />
            </Array>
          </mxGeometry>
        </mxCell>
        <mxCell id="i0heIdK5ktboHPrzZAo5-32" value="Level Assessment" style="rounded=0;whiteSpace=wrap;html=1;" vertex="1" parent="1">
          <mxGeometry x="20" y="840" width="120" height="60" as="geometry" />
        </mxCell>
        <mxCell id="i0heIdK5ktboHPrzZAo5-176" style="edgeStyle=orthogonalEdgeStyle;rounded=0;orthogonalLoop=1;jettySize=auto;html=1;exitX=1;exitY=1;exitDx=0;exitDy=0;entryX=0;entryY=0.5;entryDx=0;entryDy=0;strokeWidth=1;fontSize=11;endArrow=classic;endFill=1;" edge="1" parent="1" source="i0heIdK5ktboHPrzZAo5-39" target="i0heIdK5ktboHPrzZAo5-175">
          <mxGeometry relative="1" as="geometry">
            <Array as="points">
              <mxPoint x="-795" y="880" />
              <mxPoint x="-690" y="880" />
              <mxPoint x="-690" y="980" />
            </Array>
          </mxGeometry>
        </mxCell>
        <mxCell id="i0heIdK5ktboHPrzZAo5-39" value="Saved Work" style="rounded=0;whiteSpace=wrap;html=1;" vertex="1" parent="1">
          <mxGeometry x="-915" y="760" width="120" height="60" as="geometry" />
        </mxCell>
        <mxCell id="i0heIdK5ktboHPrzZAo5-178" style="edgeStyle=orthogonalEdgeStyle;rounded=0;orthogonalLoop=1;jettySize=auto;html=1;exitX=0.75;exitY=1;exitDx=0;exitDy=0;strokeWidth=1;fontSize=11;endArrow=classic;endFill=1;entryX=0.137;entryY=0.02;entryDx=0;entryDy=0;entryPerimeter=0;" edge="1" parent="1" source="i0heIdK5ktboHPrzZAo5-46" target="i0heIdK5ktboHPrzZAo5-175">
          <mxGeometry relative="1" as="geometry">
            <mxPoint x="-560" y="910" as="targetPoint" />
          </mxGeometry>
        </mxCell>
        <mxCell id="i0heIdK5ktboHPrzZAo5-46" value="Books" style="rounded=0;whiteSpace=wrap;html=1;" vertex="1" parent="1">
          <mxGeometry x="-655" y="760" width="120" height="60" as="geometry" />
        </mxCell>
        <mxCell id="i0heIdK5ktboHPrzZAo5-62" style="edgeStyle=orthogonalEdgeStyle;rounded=0;orthogonalLoop=1;jettySize=auto;html=1;entryX=0.5;entryY=0;entryDx=0;entryDy=0;strokeWidth=1;fontSize=11;endArrow=classic;endFill=1;exitX=1;exitY=1;exitDx=0;exitDy=0;" edge="1" parent="1" source="i0heIdK5ktboHPrzZAo5-51" target="i0heIdK5ktboHPrzZAo5-46">
          <mxGeometry relative="1" as="geometry">
            <mxPoint x="-700" y="400" as="sourcePoint" />
          </mxGeometry>
        </mxCell>
        <mxCell id="i0heIdK5ktboHPrzZAo5-63" style="edgeStyle=orthogonalEdgeStyle;rounded=0;orthogonalLoop=1;jettySize=auto;html=1;exitX=1;exitY=1;exitDx=0;exitDy=0;entryX=0.5;entryY=0;entryDx=0;entryDy=0;strokeWidth=1;fontSize=11;endArrow=classic;endFill=1;" edge="1" parent="1" source="i0heIdK5ktboHPrzZAo5-51" target="i0heIdK5ktboHPrzZAo5-59">
          <mxGeometry relative="1" as="geometry" />
        </mxCell>
        <mxCell id="i0heIdK5ktboHPrzZAo5-64" style="edgeStyle=orthogonalEdgeStyle;rounded=0;orthogonalLoop=1;jettySize=auto;html=1;exitX=0;exitY=1;exitDx=0;exitDy=0;strokeWidth=1;fontSize=11;endArrow=classic;endFill=1;" edge="1" parent="1" source="i0heIdK5ktboHPrzZAo5-51">
          <mxGeometry relative="1" as="geometry">
            <mxPoint x="-820" y="760" as="targetPoint" />
            <Array as="points">
              <mxPoint x="-820" y="403" />
            </Array>
          </mxGeometry>
        </mxCell>
        <mxCell id="i0heIdK5ktboHPrzZAo5-68" style="edgeStyle=orthogonalEdgeStyle;rounded=0;orthogonalLoop=1;jettySize=auto;html=1;exitX=0;exitY=1;exitDx=0;exitDy=0;entryX=0.5;entryY=0;entryDx=0;entryDy=0;strokeWidth=1;fontSize=11;endArrow=classic;endFill=1;" edge="1" parent="1" source="i0heIdK5ktboHPrzZAo5-51" target="i0heIdK5ktboHPrzZAo5-67">
          <mxGeometry relative="1" as="geometry" />
        </mxCell>
        <mxCell id="i0heIdK5ktboHPrzZAo5-70" style="edgeStyle=orthogonalEdgeStyle;rounded=0;orthogonalLoop=1;jettySize=auto;html=1;exitX=1;exitY=1;exitDx=0;exitDy=0;entryX=0.75;entryY=0;entryDx=0;entryDy=0;strokeWidth=1;fontSize=11;endArrow=classic;endFill=1;" edge="1" parent="1" source="i0heIdK5ktboHPrzZAo5-51" target="i0heIdK5ktboHPrzZAo5-69">
          <mxGeometry relative="1" as="geometry">
            <Array as="points">
              <mxPoint x="-690" y="403" />
              <mxPoint x="-690" y="760" />
            </Array>
          </mxGeometry>
        </mxCell>
        <mxCell id="i0heIdK5ktboHPrzZAo5-51" value="User Chooses options" style="rhombus;whiteSpace=wrap;html=1;rounded=0;fillColor=#fff2cc;strokeColor=#d6b656;" vertex="1" parent="1">
          <mxGeometry x="-800" y="335" width="120" height="90" as="geometry" />
        </mxCell>
        <mxCell id="i0heIdK5ktboHPrzZAo5-65" style="edgeStyle=orthogonalEdgeStyle;rounded=0;orthogonalLoop=1;jettySize=auto;html=1;exitX=0;exitY=0;exitDx=0;exitDy=0;entryX=0.5;entryY=1;entryDx=0;entryDy=0;strokeWidth=1;fontSize=11;endArrow=classic;endFill=1;" edge="1" parent="1" source="i0heIdK5ktboHPrzZAo5-47" target="i0heIdK5ktboHPrzZAo5-60">
          <mxGeometry relative="1" as="geometry">
            <Array as="points">
              <mxPoint x="-390" y="310" />
              <mxPoint x="-440" y="310" />
            </Array>
          </mxGeometry>
        </mxCell>
        <mxCell id="i0heIdK5ktboHPrzZAo5-66" style="edgeStyle=orthogonalEdgeStyle;rounded=0;orthogonalLoop=1;jettySize=auto;html=1;exitX=1;exitY=0;exitDx=0;exitDy=0;strokeWidth=1;fontSize=11;endArrow=classic;endFill=1;" edge="1" parent="1" source="i0heIdK5ktboHPrzZAo5-47" target="i0heIdK5ktboHPrzZAo5-61">
          <mxGeometry relative="1" as="geometry">
            <Array as="points">
              <mxPoint x="-280" y="358" />
            </Array>
          </mxGeometry>
        </mxCell>
        <mxCell id="i0heIdK5ktboHPrzZAo5-81" style="edgeStyle=orthogonalEdgeStyle;rounded=0;orthogonalLoop=1;jettySize=auto;html=1;exitX=0.5;exitY=0;exitDx=0;exitDy=0;strokeWidth=1;fontSize=11;endArrow=classic;endFill=1;" edge="1" parent="1" source="i0heIdK5ktboHPrzZAo5-47" target="i0heIdK5ktboHPrzZAo5-82">
          <mxGeometry relative="1" as="geometry">
            <mxPoint x="-360" y="115" as="targetPoint" />
          </mxGeometry>
        </mxCell>
        <mxCell id="i0heIdK5ktboHPrzZAo5-89" style="edgeStyle=orthogonalEdgeStyle;rounded=0;orthogonalLoop=1;jettySize=auto;html=1;exitX=0;exitY=0;exitDx=0;exitDy=0;entryX=1;entryY=0.5;entryDx=0;entryDy=0;strokeWidth=1;fontSize=11;endArrow=classic;endFill=1;" edge="1" parent="1" source="i0heIdK5ktboHPrzZAo5-47" target="i0heIdK5ktboHPrzZAo5-88">
          <mxGeometry relative="1" as="geometry">
            <Array as="points">
              <mxPoint x="-480" y="358" />
              <mxPoint x="-480" y="250" />
            </Array>
          </mxGeometry>
        </mxCell>
        <mxCell id="i0heIdK5ktboHPrzZAo5-126" style="edgeStyle=orthogonalEdgeStyle;rounded=0;orthogonalLoop=1;jettySize=auto;html=1;exitX=1;exitY=1;exitDx=0;exitDy=0;entryX=0.5;entryY=0;entryDx=0;entryDy=0;strokeWidth=1;fontSize=11;endArrow=classic;endFill=1;" edge="1" parent="1" source="i0heIdK5ktboHPrzZAo5-47" target="i0heIdK5ktboHPrzZAo5-91">
          <mxGeometry relative="1" as="geometry">
            <Array as="points">
              <mxPoint x="-330" y="400" />
              <mxPoint x="-270" y="400" />
            </Array>
          </mxGeometry>
        </mxCell>
        <mxCell id="i0heIdK5ktboHPrzZAo5-127" style="edgeStyle=orthogonalEdgeStyle;rounded=0;orthogonalLoop=1;jettySize=auto;html=1;exitX=1;exitY=0.5;exitDx=0;exitDy=0;entryX=0.25;entryY=0;entryDx=0;entryDy=0;strokeWidth=1;fontSize=11;endArrow=classic;endFill=1;" edge="1" parent="1" source="i0heIdK5ktboHPrzZAo5-47" target="i0heIdK5ktboHPrzZAo5-90">
          <mxGeometry relative="1" as="geometry" />
        </mxCell>
        <mxCell id="i0heIdK5ktboHPrzZAo5-47" value="User Chooses&lt;br&gt;Main / Quick &lt;br&gt;options" style="rhombus;whiteSpace=wrap;html=1;rounded=0;fillColor=#fff2cc;strokeColor=#d6b656;" vertex="1" parent="1">
          <mxGeometry x="-420" y="335" width="120" height="90" as="geometry" />
        </mxCell>
        <mxCell id="i0heIdK5ktboHPrzZAo5-56" value="" style="edgeStyle=orthogonalEdgeStyle;rounded=0;orthogonalLoop=1;jettySize=auto;html=1;strokeWidth=3;fontSize=11;endArrow=none;endFill=0;exitX=0.138;exitY=-0.033;exitDx=0;exitDy=0;exitPerimeter=0;" edge="1" parent="1" source="i0heIdK5ktboHPrzZAo5-4" target="i0heIdK5ktboHPrzZAo5-47">
          <mxGeometry relative="1" as="geometry">
            <mxPoint x="-10" y="380" as="sourcePoint" />
            <mxPoint x="-600" y="385" as="targetPoint" />
            <Array as="points">
              <mxPoint x="30" y="408" />
              <mxPoint x="30" y="380" />
            </Array>
          </mxGeometry>
        </mxCell>
        <mxCell id="i0heIdK5ktboHPrzZAo5-168" style="edgeStyle=orthogonalEdgeStyle;rounded=0;orthogonalLoop=1;jettySize=auto;html=1;exitX=1;exitY=0;exitDx=0;exitDy=0;entryX=0.2;entryY=0.711;entryDx=0;entryDy=0;entryPerimeter=0;strokeWidth=1;fontSize=11;endArrow=classic;endFill=1;" edge="1" parent="1" source="i0heIdK5ktboHPrzZAo5-57" target="i0heIdK5ktboHPrzZAo5-165">
          <mxGeometry relative="1" as="geometry">
            <Array as="points">
              <mxPoint x="-170" y="40" />
              <mxPoint x="-66" y="40" />
            </Array>
          </mxGeometry>
        </mxCell>
        <mxCell id="i0heIdK5ktboHPrzZAo5-57" value="Begin Activity/&amp;nbsp;&lt;br&gt;Improve Score" style="rhombus;whiteSpace=wrap;html=1;rounded=0;fillColor=#fff2cc;strokeColor=#d6b656;" vertex="1" parent="1">
          <mxGeometry x="-260" y="35" width="120" height="90" as="geometry" />
        </mxCell>
        <mxCell id="i0heIdK5ktboHPrzZAo5-96" style="edgeStyle=orthogonalEdgeStyle;rounded=0;orthogonalLoop=1;jettySize=auto;html=1;exitX=0;exitY=1;exitDx=0;exitDy=0;entryX=1;entryY=0.25;entryDx=0;entryDy=0;strokeWidth=1;fontSize=11;endArrow=classic;endFill=1;" edge="1" parent="1" source="i0heIdK5ktboHPrzZAo5-58" target="i0heIdK5ktboHPrzZAo5-77">
          <mxGeometry relative="1" as="geometry" />
        </mxCell>
        <mxCell id="i0heIdK5ktboHPrzZAo5-97" style="edgeStyle=orthogonalEdgeStyle;rounded=0;orthogonalLoop=1;jettySize=auto;html=1;exitX=1;exitY=1;exitDx=0;exitDy=0;entryX=0;entryY=0.25;entryDx=0;entryDy=0;strokeWidth=1;fontSize=11;endArrow=classic;endFill=1;" edge="1" parent="1" source="i0heIdK5ktboHPrzZAo5-58" target="i0heIdK5ktboHPrzZAo5-78">
          <mxGeometry relative="1" as="geometry" />
        </mxCell>
        <mxCell id="i0heIdK5ktboHPrzZAo5-98" style="edgeStyle=orthogonalEdgeStyle;rounded=0;orthogonalLoop=1;jettySize=auto;html=1;entryX=0.5;entryY=0;entryDx=0;entryDy=0;strokeWidth=1;fontSize=11;endArrow=classic;endFill=1;" edge="1" parent="1" source="i0heIdK5ktboHPrzZAo5-58" target="i0heIdK5ktboHPrzZAo5-79">
          <mxGeometry relative="1" as="geometry" />
        </mxCell>
        <mxCell id="i0heIdK5ktboHPrzZAo5-99" style="edgeStyle=orthogonalEdgeStyle;rounded=0;orthogonalLoop=1;jettySize=auto;html=1;entryX=0.5;entryY=0;entryDx=0;entryDy=0;strokeWidth=1;fontSize=11;endArrow=classic;endFill=1;" edge="1" parent="1" source="i0heIdK5ktboHPrzZAo5-58" target="i0heIdK5ktboHPrzZAo5-83">
          <mxGeometry relative="1" as="geometry" />
        </mxCell>
        <mxCell id="i0heIdK5ktboHPrzZAo5-58" value="User Chooses options" style="rhombus;whiteSpace=wrap;html=1;rounded=0;fillColor=#fff2cc;strokeColor=#d6b656;" vertex="1" parent="1">
          <mxGeometry x="-1045" y="860" width="120" height="90" as="geometry" />
        </mxCell>
        <mxCell id="i0heIdK5ktboHPrzZAo5-179" style="edgeStyle=orthogonalEdgeStyle;rounded=0;orthogonalLoop=1;jettySize=auto;html=1;exitX=0.5;exitY=1;exitDx=0;exitDy=0;entryX=1.011;entryY=0.36;entryDx=0;entryDy=0;entryPerimeter=0;strokeWidth=1;fontSize=11;endArrow=classic;endFill=1;" edge="1" parent="1" source="i0heIdK5ktboHPrzZAo5-59" target="i0heIdK5ktboHPrzZAo5-175">
          <mxGeometry relative="1" as="geometry" />
        </mxCell>
        <mxCell id="i0heIdK5ktboHPrzZAo5-59" value="Forum" style="rounded=0;whiteSpace=wrap;html=1;" vertex="1" parent="1">
          <mxGeometry x="-505" y="760" width="120" height="60" as="geometry" />
        </mxCell>
        <mxCell id="i0heIdK5ktboHPrzZAo5-149" style="edgeStyle=orthogonalEdgeStyle;rounded=0;orthogonalLoop=1;jettySize=auto;html=1;entryX=0.5;entryY=1;entryDx=0;entryDy=0;strokeWidth=1;fontSize=11;endArrow=classic;endFill=1;" edge="1" parent="1" source="i0heIdK5ktboHPrzZAo5-60" target="i0heIdK5ktboHPrzZAo5-148">
          <mxGeometry relative="1" as="geometry" />
        </mxCell>
        <mxCell id="i0heIdK5ktboHPrzZAo5-150" style="edgeStyle=orthogonalEdgeStyle;rounded=0;orthogonalLoop=1;jettySize=auto;html=1;exitX=0.25;exitY=0;exitDx=0;exitDy=0;entryX=1;entryY=0.75;entryDx=0;entryDy=0;strokeWidth=1;fontSize=11;endArrow=classic;endFill=1;" edge="1" parent="1" source="i0heIdK5ktboHPrzZAo5-60" target="i0heIdK5ktboHPrzZAo5-147">
          <mxGeometry relative="1" as="geometry" />
        </mxCell>
        <mxCell id="i0heIdK5ktboHPrzZAo5-60" value="Daily Goals" style="rounded=0;whiteSpace=wrap;html=1;" vertex="1" parent="1">
          <mxGeometry x="-500" y="140" width="120" height="60" as="geometry" />
        </mxCell>
        <mxCell id="i0heIdK5ktboHPrzZAo5-85" style="edgeStyle=orthogonalEdgeStyle;rounded=0;orthogonalLoop=1;jettySize=auto;html=1;entryX=0.5;entryY=1;entryDx=0;entryDy=0;strokeWidth=1;fontSize=11;endArrow=classic;endFill=1;" edge="1" parent="1" source="i0heIdK5ktboHPrzZAo5-61" target="i0heIdK5ktboHPrzZAo5-84">
          <mxGeometry relative="1" as="geometry">
            <Array as="points">
              <mxPoint x="-60" y="230" />
            </Array>
          </mxGeometry>
        </mxCell>
        <mxCell id="i0heIdK5ktboHPrzZAo5-87" style="edgeStyle=orthogonalEdgeStyle;rounded=0;orthogonalLoop=1;jettySize=auto;html=1;strokeWidth=1;fontSize=11;endArrow=classic;endFill=1;" edge="1" parent="1" source="i0heIdK5ktboHPrzZAo5-61" target="i0heIdK5ktboHPrzZAo5-57">
          <mxGeometry relative="1" as="geometry" />
        </mxCell>
        <mxCell id="i0heIdK5ktboHPrzZAo5-61" value="Lesson Plans" style="rounded=0;whiteSpace=wrap;html=1;" vertex="1" parent="1">
          <mxGeometry x="-340" y="200" width="120" height="60" as="geometry" />
        </mxCell>
        <mxCell id="i0heIdK5ktboHPrzZAo5-75" style="edgeStyle=orthogonalEdgeStyle;rounded=0;orthogonalLoop=1;jettySize=auto;html=1;exitX=0.5;exitY=1;exitDx=0;exitDy=0;strokeWidth=1;fontSize=11;endArrow=none;endFill=0;" edge="1" parent="1" source="i0heIdK5ktboHPrzZAo5-67" target="i0heIdK5ktboHPrzZAo5-58">
          <mxGeometry relative="1" as="geometry" />
        </mxCell>
        <mxCell id="i0heIdK5ktboHPrzZAo5-67" value="Activities" style="rounded=0;whiteSpace=wrap;html=1;" vertex="1" parent="1">
          <mxGeometry x="-1045" y="760" width="120" height="60" as="geometry" />
        </mxCell>
        <mxCell id="i0heIdK5ktboHPrzZAo5-177" style="edgeStyle=orthogonalEdgeStyle;rounded=0;orthogonalLoop=1;jettySize=auto;html=1;entryX=0;entryY=0.34;entryDx=0;entryDy=0;entryPerimeter=0;strokeWidth=1;fontSize=11;endArrow=classic;endFill=1;" edge="1" parent="1" source="i0heIdK5ktboHPrzZAo5-69" target="i0heIdK5ktboHPrzZAo5-175">
          <mxGeometry relative="1" as="geometry">
            <Array as="points">
              <mxPoint x="-725" y="860" />
              <mxPoint x="-615" y="860" />
              <mxPoint x="-615" y="964" />
            </Array>
          </mxGeometry>
        </mxCell>
        <mxCell id="i0heIdK5ktboHPrzZAo5-69" value="Instructor/ Assessment &amp;nbsp;Feedback" style="rounded=0;whiteSpace=wrap;html=1;" vertex="1" parent="1">
          <mxGeometry x="-785" y="760" width="120" height="60" as="geometry" />
        </mxCell>
        <mxCell id="i0heIdK5ktboHPrzZAo5-73" style="edgeStyle=orthogonalEdgeStyle;rounded=0;orthogonalLoop=1;jettySize=auto;html=1;exitX=0;exitY=0.5;exitDx=0;exitDy=0;entryX=1;entryY=0;entryDx=0;entryDy=0;strokeWidth=1;fontSize=11;endArrow=classic;endFill=1;" edge="1" parent="1" source="i0heIdK5ktboHPrzZAo5-71" target="i0heIdK5ktboHPrzZAo5-3">
          <mxGeometry relative="1" as="geometry">
            <Array as="points">
              <mxPoint x="460" y="130" />
              <mxPoint x="460" y="183" />
            </Array>
          </mxGeometry>
        </mxCell>
        <mxCell id="i0heIdK5ktboHPrzZAo5-74" style="edgeStyle=orthogonalEdgeStyle;rounded=0;orthogonalLoop=1;jettySize=auto;html=1;exitX=0.5;exitY=1;exitDx=0;exitDy=0;entryX=0.85;entryY=0.644;entryDx=0;entryDy=0;entryPerimeter=0;strokeWidth=1;fontSize=11;endArrow=classic;endFill=1;" edge="1" parent="1" source="i0heIdK5ktboHPrzZAo5-71" target="i0heIdK5ktboHPrzZAo5-3">
          <mxGeometry relative="1" as="geometry" />
        </mxCell>
        <mxCell id="i0heIdK5ktboHPrzZAo5-71" value="Audio Assistance?" style="rhombus;whiteSpace=wrap;html=1;rounded=0;fillColor=#fff2cc;strokeColor=#d6b656;" vertex="1" parent="1">
          <mxGeometry x="550" y="85" width="120" height="90" as="geometry" />
        </mxCell>
        <mxCell id="i0heIdK5ktboHPrzZAo5-172" style="edgeStyle=orthogonalEdgeStyle;rounded=0;orthogonalLoop=1;jettySize=auto;html=1;exitX=0.5;exitY=1;exitDx=0;exitDy=0;entryX=-0.05;entryY=0.383;entryDx=0;entryDy=0;entryPerimeter=0;strokeWidth=1;fontSize=11;endArrow=classic;endFill=1;" edge="1" parent="1" source="i0heIdK5ktboHPrzZAo5-77" target="i0heIdK5ktboHPrzZAo5-170">
          <mxGeometry relative="1" as="geometry">
            <Array as="points">
              <mxPoint x="-1095" y="1130" />
              <mxPoint x="-1038" y="1130" />
            </Array>
          </mxGeometry>
        </mxCell>
        <mxCell id="i0heIdK5ktboHPrzZAo5-77" value="Vocab" style="rounded=0;whiteSpace=wrap;html=1;" vertex="1" parent="1">
          <mxGeometry x="-1155" y="990" width="120" height="60" as="geometry" />
        </mxCell>
        <mxCell id="i0heIdK5ktboHPrzZAo5-173" style="edgeStyle=orthogonalEdgeStyle;rounded=0;orthogonalLoop=1;jettySize=auto;html=1;entryX=1;entryY=0.25;entryDx=0;entryDy=0;strokeWidth=1;fontSize=11;endArrow=classic;endFill=1;" edge="1" parent="1" source="i0heIdK5ktboHPrzZAo5-78" target="i0heIdK5ktboHPrzZAo5-170">
          <mxGeometry relative="1" as="geometry">
            <Array as="points">
              <mxPoint x="-875" y="1130" />
              <mxPoint x="-955" y="1130" />
              <mxPoint x="-955" y="1125" />
            </Array>
          </mxGeometry>
        </mxCell>
        <mxCell id="i0heIdK5ktboHPrzZAo5-78" value="1 min &amp;nbsp;practices" style="rounded=0;whiteSpace=wrap;html=1;" vertex="1" parent="1">
          <mxGeometry x="-935" y="990" width="120" height="60" as="geometry" />
        </mxCell>
        <mxCell id="i0heIdK5ktboHPrzZAo5-174" style="edgeStyle=orthogonalEdgeStyle;rounded=0;orthogonalLoop=1;jettySize=auto;html=1;entryX=1;entryY=0.75;entryDx=0;entryDy=0;strokeWidth=1;fontSize=11;endArrow=classic;endFill=1;" edge="1" parent="1" source="i0heIdK5ktboHPrzZAo5-79" target="i0heIdK5ktboHPrzZAo5-170">
          <mxGeometry relative="1" as="geometry">
            <Array as="points">
              <mxPoint x="-720" y="1155" />
            </Array>
          </mxGeometry>
        </mxCell>
        <mxCell id="i0heIdK5ktboHPrzZAo5-79" value="3 min &amp;nbsp;practices" style="rounded=0;whiteSpace=wrap;html=1;" vertex="1" parent="1">
          <mxGeometry x="-775" y="990" width="120" height="60" as="geometry" />
        </mxCell>
        <mxCell id="i0heIdK5ktboHPrzZAo5-121" style="edgeStyle=orthogonalEdgeStyle;rounded=0;orthogonalLoop=1;jettySize=auto;html=1;exitX=0.5;exitY=0;exitDx=0;exitDy=0;entryX=0.5;entryY=1;entryDx=0;entryDy=0;strokeWidth=1;fontSize=11;endArrow=classic;endFill=1;" edge="1" parent="1" source="i0heIdK5ktboHPrzZAo5-82" target="i0heIdK5ktboHPrzZAo5-107">
          <mxGeometry relative="1" as="geometry">
            <Array as="points">
              <mxPoint x="-390" y="25" />
            </Array>
          </mxGeometry>
        </mxCell>
        <mxCell id="i0heIdK5ktboHPrzZAo5-82" value="Take Assessment" style="rounded=0;whiteSpace=wrap;html=1;fillColor=#e1d5e7;strokeColor=#9673a6;" vertex="1" parent="1">
          <mxGeometry x="-420" y="25" width="120" height="60" as="geometry" />
        </mxCell>
        <mxCell id="i0heIdK5ktboHPrzZAo5-171" style="edgeStyle=orthogonalEdgeStyle;rounded=0;orthogonalLoop=1;jettySize=auto;html=1;exitX=0.5;exitY=1;exitDx=0;exitDy=0;entryX=0.083;entryY=0.65;entryDx=0;entryDy=0;entryPerimeter=0;strokeWidth=1;fontSize=11;endArrow=classic;endFill=1;" edge="1" parent="1" source="i0heIdK5ktboHPrzZAo5-83" target="i0heIdK5ktboHPrzZAo5-170">
          <mxGeometry relative="1" as="geometry">
            <Array as="points">
              <mxPoint x="-1250" y="1150" />
            </Array>
          </mxGeometry>
        </mxCell>
        <mxCell id="i0heIdK5ktboHPrzZAo5-83" value="Reading Comprehension Activity&lt;span style=&quot;caret-color: rgba(0, 0, 0, 0); color: rgba(0, 0, 0, 0); font-family: monospace; font-size: 0px; text-align: start;&quot;&gt;%3CmxGraphModel%3E%3Croot%3E%3CmxCell%20id%3D%220%22%2F%3E%3CmxCell%20id%3D%221%22%20parent%3D%220%22%2F%3E%3CmxCell%20id%3D%222%22%20value%3D%22Instructor%20Feedback%22%20style%3D%22rounded%3D0%3BwhiteSpace%3Dwrap%3Bhtml%3D1%3B%22%20vertex%3D%221%22%20parent%3D%221%22%3E%3CmxGeometry%20x%3D%22-1200%22%20y%3D%22760%22%20width%3D%22120%22%20height%3D%2260%22%20as%3D%22geometry%22%2F%3E%3C%2FmxCell%3E%3C%2Froot%3E%3C%2FmxGraphModel%3E&lt;/span&gt;" style="rounded=0;whiteSpace=wrap;html=1;" vertex="1" parent="1">
          <mxGeometry x="-1310" y="990" width="120" height="60" as="geometry" />
        </mxCell>
        <mxCell id="i0heIdK5ktboHPrzZAo5-169" style="edgeStyle=orthogonalEdgeStyle;rounded=0;orthogonalLoop=1;jettySize=auto;html=1;strokeWidth=1;fontSize=11;endArrow=classic;endFill=1;exitX=0.75;exitY=0;exitDx=0;exitDy=0;" edge="1" parent="1" source="i0heIdK5ktboHPrzZAo5-84" target="i0heIdK5ktboHPrzZAo5-165">
          <mxGeometry relative="1" as="geometry" />
        </mxCell>
        <mxCell id="i0heIdK5ktboHPrzZAo5-84" value="Progress/Scores&lt;br&gt;&amp;nbsp;on Activity" style="rounded=0;whiteSpace=wrap;html=1;" vertex="1" parent="1">
          <mxGeometry x="-120" y="60" width="120" height="50" as="geometry" />
        </mxCell>
        <mxCell id="i0heIdK5ktboHPrzZAo5-88" value="Level/ Awards Page" style="rounded=0;whiteSpace=wrap;html=1;" vertex="1" parent="1">
          <mxGeometry x="-660" y="220" width="120" height="60" as="geometry" />
        </mxCell>
        <mxCell id="i0heIdK5ktboHPrzZAo5-131" style="edgeStyle=orthogonalEdgeStyle;rounded=0;orthogonalLoop=1;jettySize=auto;html=1;exitX=1;exitY=0.25;exitDx=0;exitDy=0;entryX=1;entryY=0.633;entryDx=0;entryDy=0;entryPerimeter=0;strokeWidth=1;fontSize=11;endArrow=classic;endFill=1;" edge="1" parent="1" source="i0heIdK5ktboHPrzZAo5-90" target="i0heIdK5ktboHPrzZAo5-102">
          <mxGeometry relative="1" as="geometry" />
        </mxCell>
        <mxCell id="i0heIdK5ktboHPrzZAo5-132" style="edgeStyle=orthogonalEdgeStyle;rounded=0;orthogonalLoop=1;jettySize=auto;html=1;exitX=1;exitY=0.5;exitDx=0;exitDy=0;entryX=1;entryY=0.5;entryDx=0;entryDy=0;strokeWidth=1;fontSize=11;endArrow=classic;endFill=1;" edge="1" parent="1" source="i0heIdK5ktboHPrzZAo5-90" target="i0heIdK5ktboHPrzZAo5-130">
          <mxGeometry relative="1" as="geometry" />
        </mxCell>
        <mxCell id="i0heIdK5ktboHPrzZAo5-133" style="edgeStyle=orthogonalEdgeStyle;rounded=0;orthogonalLoop=1;jettySize=auto;html=1;exitX=1;exitY=0.75;exitDx=0;exitDy=0;entryX=1;entryY=0.5;entryDx=0;entryDy=0;strokeWidth=1;fontSize=11;endArrow=classic;endFill=1;" edge="1" parent="1" source="i0heIdK5ktboHPrzZAo5-90" target="i0heIdK5ktboHPrzZAo5-129">
          <mxGeometry relative="1" as="geometry" />
        </mxCell>
        <mxCell id="i0heIdK5ktboHPrzZAo5-136" style="edgeStyle=orthogonalEdgeStyle;rounded=0;orthogonalLoop=1;jettySize=auto;html=1;entryX=1;entryY=0.5;entryDx=0;entryDy=0;strokeWidth=1;fontSize=11;endArrow=classic;endFill=1;" edge="1" parent="1" source="i0heIdK5ktboHPrzZAo5-90" target="i0heIdK5ktboHPrzZAo5-135">
          <mxGeometry relative="1" as="geometry">
            <Array as="points">
              <mxPoint x="-50" y="700" />
            </Array>
          </mxGeometry>
        </mxCell>
        <mxCell id="i0heIdK5ktboHPrzZAo5-137" style="edgeStyle=orthogonalEdgeStyle;rounded=0;orthogonalLoop=1;jettySize=auto;html=1;exitX=1;exitY=0;exitDx=0;exitDy=0;strokeWidth=1;fontSize=11;endArrow=classic;endFill=1;entryX=1;entryY=0.5;entryDx=0;entryDy=0;" edge="1" parent="1" source="i0heIdK5ktboHPrzZAo5-90" target="i0heIdK5ktboHPrzZAo5-134">
          <mxGeometry relative="1" as="geometry">
            <mxPoint x="-60" y="540" as="targetPoint" />
            <Array as="points">
              <mxPoint x="-30" y="440" />
              <mxPoint x="-30" y="1010" />
            </Array>
          </mxGeometry>
        </mxCell>
        <mxCell id="i0heIdK5ktboHPrzZAo5-90" value="Menu/ Profile" style="rounded=0;whiteSpace=wrap;html=1;" vertex="1" parent="1">
          <mxGeometry x="-170" y="440" width="120" height="60" as="geometry" />
        </mxCell>
        <mxCell id="i0heIdK5ktboHPrzZAo5-93" style="edgeStyle=orthogonalEdgeStyle;rounded=0;orthogonalLoop=1;jettySize=auto;html=1;exitX=0.5;exitY=1;exitDx=0;exitDy=0;entryX=0.5;entryY=0;entryDx=0;entryDy=0;strokeWidth=1;fontSize=11;endArrow=classic;endFill=1;" edge="1" parent="1" source="i0heIdK5ktboHPrzZAo5-91" target="i0heIdK5ktboHPrzZAo5-92">
          <mxGeometry relative="1" as="geometry">
            <Array as="points">
              <mxPoint x="-350" y="500" />
            </Array>
          </mxGeometry>
        </mxCell>
        <mxCell id="i0heIdK5ktboHPrzZAo5-122" style="edgeStyle=orthogonalEdgeStyle;rounded=0;orthogonalLoop=1;jettySize=auto;html=1;exitX=0.75;exitY=1;exitDx=0;exitDy=0;entryX=0.333;entryY=0.017;entryDx=0;entryDy=0;entryPerimeter=0;strokeWidth=1;fontSize=11;endArrow=classic;endFill=1;" edge="1" parent="1" source="i0heIdK5ktboHPrzZAo5-91" target="i0heIdK5ktboHPrzZAo5-120">
          <mxGeometry relative="1" as="geometry" />
        </mxCell>
        <mxCell id="i0heIdK5ktboHPrzZAo5-91" value="Voice Assistant" style="rounded=0;whiteSpace=wrap;html=1;" vertex="1" parent="1">
          <mxGeometry x="-330" y="440" width="120" height="60" as="geometry" />
        </mxCell>
        <mxCell id="i0heIdK5ktboHPrzZAo5-95" style="edgeStyle=orthogonalEdgeStyle;rounded=0;orthogonalLoop=1;jettySize=auto;html=1;exitX=1;exitY=1;exitDx=0;exitDy=0;strokeWidth=1;fontSize=11;endArrow=none;endFill=0;" edge="1" parent="1" source="i0heIdK5ktboHPrzZAo5-92" target="i0heIdK5ktboHPrzZAo5-123">
          <mxGeometry relative="1" as="geometry">
            <mxPoint x="-320" y="680" as="targetPoint" />
            <Array as="points">
              <mxPoint x="-320" y="680" />
              <mxPoint x="-320" y="680" />
            </Array>
          </mxGeometry>
        </mxCell>
        <mxCell id="i0heIdK5ktboHPrzZAo5-125" style="edgeStyle=orthogonalEdgeStyle;rounded=0;orthogonalLoop=1;jettySize=auto;html=1;exitX=0;exitY=1;exitDx=0;exitDy=0;entryX=0.6;entryY=0.25;entryDx=0;entryDy=0;entryPerimeter=0;strokeWidth=1;fontSize=11;endArrow=classic;endFill=1;" edge="1" parent="1" source="i0heIdK5ktboHPrzZAo5-92" target="i0heIdK5ktboHPrzZAo5-124">
          <mxGeometry relative="1" as="geometry" />
        </mxCell>
        <mxCell id="i0heIdK5ktboHPrzZAo5-92" value="Need this tool?&amp;nbsp;" style="rhombus;whiteSpace=wrap;html=1;rounded=0;fontSize=11;fillColor=#fff2cc;strokeColor=#d6b656;" vertex="1" parent="1">
          <mxGeometry x="-410" y="555" width="120" height="90" as="geometry" />
        </mxCell>
        <mxCell id="i0heIdK5ktboHPrzZAo5-142" style="edgeStyle=orthogonalEdgeStyle;rounded=0;orthogonalLoop=1;jettySize=auto;html=1;exitX=0;exitY=0.5;exitDx=0;exitDy=0;entryX=1;entryY=0.5;entryDx=0;entryDy=0;strokeWidth=1;fontSize=11;endArrow=classic;endFill=1;" edge="1" parent="1" source="i0heIdK5ktboHPrzZAo5-102" target="i0heIdK5ktboHPrzZAo5-138">
          <mxGeometry relative="1" as="geometry" />
        </mxCell>
        <mxCell id="i0heIdK5ktboHPrzZAo5-102" value="Documents" style="rounded=0;whiteSpace=wrap;html=1;" vertex="1" parent="1">
          <mxGeometry x="-180" y="900" width="90" height="60" as="geometry" />
        </mxCell>
        <mxCell id="i0heIdK5ktboHPrzZAo5-103" style="edgeStyle=orthogonalEdgeStyle;rounded=0;orthogonalLoop=1;jettySize=auto;html=1;exitX=0;exitY=0.5;exitDx=0;exitDy=0;entryX=0.75;entryY=1;entryDx=0;entryDy=0;strokeWidth=1;fontSize=11;endArrow=classic;endFill=1;" edge="1" parent="1" source="i0heIdK5ktboHPrzZAo5-107" target="i0heIdK5ktboHPrzZAo5-108">
          <mxGeometry relative="1" as="geometry">
            <Array as="points">
              <mxPoint x="-640" y="-85" />
              <mxPoint x="-640" y="-260" />
            </Array>
          </mxGeometry>
        </mxCell>
        <mxCell id="i0heIdK5ktboHPrzZAo5-104" style="edgeStyle=orthogonalEdgeStyle;rounded=0;orthogonalLoop=1;jettySize=auto;html=1;exitX=1;exitY=0;exitDx=0;exitDy=0;entryX=0.5;entryY=1;entryDx=0;entryDy=0;strokeWidth=1;fontSize=11;endArrow=classic;endFill=1;" edge="1" parent="1" source="i0heIdK5ktboHPrzZAo5-107" target="i0heIdK5ktboHPrzZAo5-109">
          <mxGeometry relative="1" as="geometry">
            <Array as="points">
              <mxPoint x="-300" y="-107" />
            </Array>
          </mxGeometry>
        </mxCell>
        <mxCell id="i0heIdK5ktboHPrzZAo5-105" style="edgeStyle=orthogonalEdgeStyle;rounded=0;orthogonalLoop=1;jettySize=auto;html=1;entryX=0.5;entryY=1;entryDx=0;entryDy=0;strokeWidth=1;fontSize=11;endArrow=classic;endFill=1;" edge="1" parent="1" source="i0heIdK5ktboHPrzZAo5-107" target="i0heIdK5ktboHPrzZAo5-110">
          <mxGeometry relative="1" as="geometry" />
        </mxCell>
        <mxCell id="i0heIdK5ktboHPrzZAo5-106" style="edgeStyle=orthogonalEdgeStyle;rounded=0;orthogonalLoop=1;jettySize=auto;html=1;entryX=0.5;entryY=1;entryDx=0;entryDy=0;strokeWidth=1;fontSize=11;endArrow=classic;endFill=1;exitX=0;exitY=0;exitDx=0;exitDy=0;" edge="1" parent="1" source="i0heIdK5ktboHPrzZAo5-107" target="i0heIdK5ktboHPrzZAo5-119">
          <mxGeometry relative="1" as="geometry">
            <mxPoint x="-657.5" y="-100" as="targetPoint" />
            <Array as="points">
              <mxPoint x="-445" y="-107" />
            </Array>
          </mxGeometry>
        </mxCell>
        <mxCell id="i0heIdK5ktboHPrzZAo5-107" value="User Chooses options" style="rhombus;whiteSpace=wrap;html=1;rounded=0;fillColor=#fff2cc;strokeColor=#d6b656;" vertex="1" parent="1">
          <mxGeometry x="-450" y="-130" width="120" height="90" as="geometry" />
        </mxCell>
        <mxCell id="i0heIdK5ktboHPrzZAo5-190" style="edgeStyle=orthogonalEdgeStyle;rounded=0;orthogonalLoop=1;jettySize=auto;html=1;entryX=0.5;entryY=1;entryDx=0;entryDy=0;strokeWidth=3;fontSize=11;endArrow=classic;endFill=1;" edge="1" parent="1" source="i0heIdK5ktboHPrzZAo5-108" target="i0heIdK5ktboHPrzZAo5-164">
          <mxGeometry relative="1" as="geometry" />
        </mxCell>
        <mxCell id="i0heIdK5ktboHPrzZAo5-108" value="Reading Comprehension assessment" style="rounded=0;whiteSpace=wrap;html=1;fillColor=#ffe6cc;strokeColor=#d79b00;" vertex="1" parent="1">
          <mxGeometry x="-730" y="-330" width="120" height="60" as="geometry" />
        </mxCell>
        <mxCell id="i0heIdK5ktboHPrzZAo5-109" value="1 minute &lt;br&gt;assessment" style="rounded=0;whiteSpace=wrap;html=1;" vertex="1" parent="1">
          <mxGeometry x="-360" y="-340" width="120" height="60" as="geometry" />
        </mxCell>
        <mxCell id="i0heIdK5ktboHPrzZAo5-110" value="3 min&amp;nbsp;&lt;br&gt;assessment" style="rounded=0;whiteSpace=wrap;html=1;" vertex="1" parent="1">
          <mxGeometry x="-180" y="-240" width="120" height="60" as="geometry" />
        </mxCell>
        <mxCell id="i0heIdK5ktboHPrzZAo5-209" style="edgeStyle=orthogonalEdgeStyle;rounded=0;orthogonalLoop=1;jettySize=auto;html=1;entryX=0;entryY=0.25;entryDx=0;entryDy=0;strokeWidth=3;fontSize=11;endArrow=classic;endFill=1;" edge="1" parent="1" source="i0heIdK5ktboHPrzZAo5-119" target="i0heIdK5ktboHPrzZAo5-189">
          <mxGeometry relative="1" as="geometry">
            <Array as="points">
              <mxPoint x="-445" y="-415" />
            </Array>
          </mxGeometry>
        </mxCell>
        <mxCell id="i0heIdK5ktboHPrzZAo5-119" value="Vocab &lt;br&gt;assessment" style="rounded=0;whiteSpace=wrap;html=1;" vertex="1" parent="1">
          <mxGeometry x="-505" y="-350" width="120" height="60" as="geometry" />
        </mxCell>
        <mxCell id="i0heIdK5ktboHPrzZAo5-180" style="edgeStyle=orthogonalEdgeStyle;rounded=0;orthogonalLoop=1;jettySize=auto;html=1;entryX=1;entryY=0.5;entryDx=0;entryDy=0;strokeWidth=1;fontSize=11;endArrow=classic;endFill=1;" edge="1" parent="1" source="i0heIdK5ktboHPrzZAo5-120" target="i0heIdK5ktboHPrzZAo5-146">
          <mxGeometry relative="1" as="geometry">
            <Array as="points">
              <mxPoint x="-150" y="565" />
              <mxPoint x="-150" y="630" />
            </Array>
          </mxGeometry>
        </mxCell>
        <mxCell id="i0heIdK5ktboHPrzZAo5-120" value="&lt;span style=&quot;caret-color: rgb(0, 0, 0); color: rgb(0, 0, 0); font-family: Helvetica; font-size: 12px; font-style: normal; font-variant-caps: normal; font-weight: 400; letter-spacing: normal; text-align: center; text-indent: 0px; text-transform: none; word-spacing: 0px; -webkit-text-stroke-width: 0px; background-color: rgb(248, 249, 250); text-decoration: none; float: none; display: inline !important;&quot;&gt;Assistant Settings&lt;/span&gt;" style="rounded=0;whiteSpace=wrap;html=1;" vertex="1" parent="1">
          <mxGeometry x="-280" y="540" width="120" height="50" as="geometry" />
        </mxCell>
        <mxCell id="i0heIdK5ktboHPrzZAo5-123" value="Off but accessible&lt;br&gt;on other pages" style="rounded=0;whiteSpace=wrap;html=1;" vertex="1" parent="1">
          <mxGeometry x="-340" y="680" width="110" height="40" as="geometry" />
        </mxCell>
        <mxCell id="i0heIdK5ktboHPrzZAo5-124" value="On on every Page" style="rounded=0;whiteSpace=wrap;html=1;" vertex="1" parent="1">
          <mxGeometry x="-434" y="680" width="90" height="40" as="geometry" />
        </mxCell>
        <mxCell id="i0heIdK5ktboHPrzZAo5-128" style="edgeStyle=orthogonalEdgeStyle;rounded=0;orthogonalLoop=1;jettySize=auto;html=1;exitX=0.5;exitY=1;exitDx=0;exitDy=0;strokeWidth=1;fontSize=11;endArrow=classic;endFill=1;" edge="1" parent="1" source="i0heIdK5ktboHPrzZAo5-120" target="i0heIdK5ktboHPrzZAo5-120">
          <mxGeometry relative="1" as="geometry" />
        </mxCell>
        <mxCell id="i0heIdK5ktboHPrzZAo5-140" style="edgeStyle=orthogonalEdgeStyle;rounded=0;orthogonalLoop=1;jettySize=auto;html=1;exitX=0;exitY=0.5;exitDx=0;exitDy=0;strokeWidth=1;fontSize=11;endArrow=classic;endFill=1;" edge="1" parent="1" source="i0heIdK5ktboHPrzZAo5-129" target="i0heIdK5ktboHPrzZAo5-138">
          <mxGeometry relative="1" as="geometry" />
        </mxCell>
        <mxCell id="i0heIdK5ktboHPrzZAo5-129" value="Profile" style="rounded=0;whiteSpace=wrap;html=1;" vertex="1" parent="1">
          <mxGeometry x="-180" y="750" width="90" height="60" as="geometry" />
        </mxCell>
        <mxCell id="i0heIdK5ktboHPrzZAo5-141" style="edgeStyle=orthogonalEdgeStyle;rounded=0;orthogonalLoop=1;jettySize=auto;html=1;entryX=0.5;entryY=0;entryDx=0;entryDy=0;strokeWidth=1;fontSize=11;endArrow=classic;endFill=1;" edge="1" parent="1" source="i0heIdK5ktboHPrzZAo5-130" target="i0heIdK5ktboHPrzZAo5-138">
          <mxGeometry relative="1" as="geometry" />
        </mxCell>
        <mxCell id="i0heIdK5ktboHPrzZAo5-130" value="Settings" style="rounded=0;whiteSpace=wrap;html=1;" vertex="1" parent="1">
          <mxGeometry x="-180" y="830" width="90" height="60" as="geometry" />
        </mxCell>
        <mxCell id="i0heIdK5ktboHPrzZAo5-143" style="edgeStyle=orthogonalEdgeStyle;rounded=0;orthogonalLoop=1;jettySize=auto;html=1;exitX=0;exitY=0.5;exitDx=0;exitDy=0;entryX=0.933;entryY=0.633;entryDx=0;entryDy=0;entryPerimeter=0;strokeWidth=1;fontSize=11;endArrow=classic;endFill=1;" edge="1" parent="1" source="i0heIdK5ktboHPrzZAo5-134" target="i0heIdK5ktboHPrzZAo5-138">
          <mxGeometry relative="1" as="geometry">
            <Array as="points">
              <mxPoint x="-210" y="1010" />
              <mxPoint x="-210" y="888" />
            </Array>
          </mxGeometry>
        </mxCell>
        <mxCell id="i0heIdK5ktboHPrzZAo5-134" value="Help/Report" style="rounded=0;whiteSpace=wrap;html=1;" vertex="1" parent="1">
          <mxGeometry x="-180" y="980" width="90" height="60" as="geometry" />
        </mxCell>
        <mxCell id="i0heIdK5ktboHPrzZAo5-139" style="edgeStyle=orthogonalEdgeStyle;rounded=0;orthogonalLoop=1;jettySize=auto;html=1;exitX=0;exitY=0.5;exitDx=0;exitDy=0;strokeWidth=1;fontSize=11;endArrow=classic;endFill=1;" edge="1" parent="1" source="i0heIdK5ktboHPrzZAo5-135" target="i0heIdK5ktboHPrzZAo5-138">
          <mxGeometry relative="1" as="geometry">
            <Array as="points">
              <mxPoint x="-210" y="700" />
              <mxPoint x="-210" y="840" />
              <mxPoint x="-270" y="840" />
            </Array>
          </mxGeometry>
        </mxCell>
        <mxCell id="i0heIdK5ktboHPrzZAo5-135" value="Courses" style="rounded=0;whiteSpace=wrap;html=1;" vertex="1" parent="1">
          <mxGeometry x="-180" y="670" width="90" height="60" as="geometry" />
        </mxCell>
        <mxCell id="i0heIdK5ktboHPrzZAo5-138" value="OTHER STUFF" style="verticalLabelPosition=bottom;verticalAlign=top;html=1;shape=offPageConnector;rounded=0;size=0.5;strokeWidth=2;fontSize=11;fillColor=#f8cecc;strokeColor=#b85450;" vertex="1" parent="1">
          <mxGeometry x="-300" y="850" width="60" height="60" as="geometry" />
        </mxCell>
        <mxCell id="i0heIdK5ktboHPrzZAo5-146" value="OTHER STUFF" style="verticalLabelPosition=bottom;verticalAlign=top;html=1;shape=offPageConnector;rounded=0;size=0.5;strokeWidth=2;fontSize=11;fillColor=#f8cecc;strokeColor=#b85450;" vertex="1" parent="1">
          <mxGeometry x="-245" y="610" width="50" height="40" as="geometry" />
        </mxCell>
        <mxCell id="i0heIdK5ktboHPrzZAo5-152" style="edgeStyle=orthogonalEdgeStyle;rounded=0;orthogonalLoop=1;jettySize=auto;html=1;exitX=0;exitY=0.25;exitDx=0;exitDy=0;entryX=1;entryY=0.25;entryDx=0;entryDy=0;strokeWidth=1;fontSize=11;endArrow=classic;endFill=1;" edge="1" parent="1" source="i0heIdK5ktboHPrzZAo5-147" target="i0heIdK5ktboHPrzZAo5-151">
          <mxGeometry relative="1" as="geometry" />
        </mxCell>
        <mxCell id="i0heIdK5ktboHPrzZAo5-147" value="Daily Reading" style="rounded=0;whiteSpace=wrap;html=1;" vertex="1" parent="1">
          <mxGeometry x="-640" width="120" height="60" as="geometry" />
        </mxCell>
        <mxCell id="i0heIdK5ktboHPrzZAo5-155" style="edgeStyle=orthogonalEdgeStyle;rounded=0;orthogonalLoop=1;jettySize=auto;html=1;entryX=1;entryY=0;entryDx=0;entryDy=0;strokeWidth=3;fontSize=11;endArrow=classic;endFill=1;" edge="1" parent="1" source="i0heIdK5ktboHPrzZAo5-148" target="i0heIdK5ktboHPrzZAo5-154">
          <mxGeometry relative="1" as="geometry" />
        </mxCell>
        <mxCell id="i0heIdK5ktboHPrzZAo5-148" value="Lesson Plan Goals" style="rounded=0;whiteSpace=wrap;html=1;" vertex="1" parent="1">
          <mxGeometry x="-640" y="85" width="120" height="60" as="geometry" />
        </mxCell>
        <mxCell id="i0heIdK5ktboHPrzZAo5-151" value="OTHER STUFF" style="verticalLabelPosition=bottom;verticalAlign=top;html=1;shape=offPageConnector;rounded=0;size=0.5;strokeWidth=2;fontSize=11;fillColor=#f8cecc;strokeColor=#b85450;" vertex="1" parent="1">
          <mxGeometry x="-745" width="60" height="60" as="geometry" />
        </mxCell>
        <mxCell id="i0heIdK5ktboHPrzZAo5-154" value="Complete&lt;br&gt;&amp;nbsp;Daily Goals" style="rhombus;whiteSpace=wrap;html=1;rounded=0;fillColor=#fff2cc;strokeColor=#d6b656;" vertex="1" parent="1">
          <mxGeometry x="-785" y="110" width="120" height="90" as="geometry" />
        </mxCell>
        <mxCell id="i0heIdK5ktboHPrzZAo5-195" style="edgeStyle=orthogonalEdgeStyle;rounded=0;orthogonalLoop=1;jettySize=auto;html=1;exitX=1;exitY=0;exitDx=0;exitDy=0;entryX=0;entryY=0.75;entryDx=0;entryDy=0;strokeWidth=3;fontSize=11;endArrow=classic;endFill=1;" edge="1" parent="1" source="i0heIdK5ktboHPrzZAo5-157" target="i0heIdK5ktboHPrzZAo5-162">
          <mxGeometry relative="1" as="geometry" />
        </mxCell>
        <mxCell id="i0heIdK5ktboHPrzZAo5-157" value="User Chooses&lt;br&gt;&amp;nbsp;a book" style="rhombus;whiteSpace=wrap;html=1;rounded=0;fillColor=#fff2cc;strokeColor=#d6b656;" vertex="1" parent="1">
          <mxGeometry x="-625" y="-850" width="120" height="90" as="geometry" />
        </mxCell>
        <mxCell id="i0heIdK5ktboHPrzZAo5-197" style="edgeStyle=orthogonalEdgeStyle;rounded=0;orthogonalLoop=1;jettySize=auto;html=1;strokeWidth=3;fontSize=11;endArrow=classic;endFill=1;" edge="1" parent="1" source="i0heIdK5ktboHPrzZAo5-158" target="i0heIdK5ktboHPrzZAo5-192">
          <mxGeometry relative="1" as="geometry" />
        </mxCell>
        <mxCell id="i0heIdK5ktboHPrzZAo5-158" value="User Reads &lt;br&gt;the book (timed)" style="rhombus;whiteSpace=wrap;html=1;rounded=0;fillColor=#fff2cc;strokeColor=#d6b656;" vertex="1" parent="1">
          <mxGeometry x="-350" y="-935" width="120" height="90" as="geometry" />
        </mxCell>
        <mxCell id="i0heIdK5ktboHPrzZAo5-159" value="User Answers questions based&amp;nbsp;&lt;br&gt;on book" style="rhombus;whiteSpace=wrap;html=1;rounded=0;fillColor=#fff2cc;strokeColor=#d6b656;" vertex="1" parent="1">
          <mxGeometry x="140" y="-880" width="120" height="90" as="geometry" />
        </mxCell>
        <mxCell id="i0heIdK5ktboHPrzZAo5-207" style="edgeStyle=orthogonalEdgeStyle;rounded=0;orthogonalLoop=1;jettySize=auto;html=1;exitX=0;exitY=1;exitDx=0;exitDy=0;entryX=1;entryY=0;entryDx=0;entryDy=0;strokeWidth=3;fontSize=11;endArrow=classic;endFill=1;" edge="1" parent="1" source="i0heIdK5ktboHPrzZAo5-160" target="i0heIdK5ktboHPrzZAo5-203">
          <mxGeometry relative="1" as="geometry" />
        </mxCell>
        <mxCell id="i0heIdK5ktboHPrzZAo5-160" value="User Composes a&amp;nbsp;&lt;br&gt;Summary about the book&lt;br&gt;" style="rhombus;whiteSpace=wrap;html=1;rounded=0;fillColor=#fff2cc;strokeColor=#d6b656;" vertex="1" parent="1">
          <mxGeometry x="-230" y="-820" width="120" height="95" as="geometry" />
        </mxCell>
        <mxCell id="i0heIdK5ktboHPrzZAo5-194" style="edgeStyle=orthogonalEdgeStyle;rounded=0;orthogonalLoop=1;jettySize=auto;html=1;exitX=0.5;exitY=0;exitDx=0;exitDy=0;entryX=0.5;entryY=1;entryDx=0;entryDy=0;strokeWidth=3;fontSize=11;endArrow=classic;endFill=1;" edge="1" parent="1" source="i0heIdK5ktboHPrzZAo5-161" target="i0heIdK5ktboHPrzZAo5-157">
          <mxGeometry relative="1" as="geometry" />
        </mxCell>
        <mxCell id="i0heIdK5ktboHPrzZAo5-161" value="Book Options" style="rounded=0;whiteSpace=wrap;html=1;" vertex="1" parent="1">
          <mxGeometry x="-625" y="-720" width="120" height="60" as="geometry" />
        </mxCell>
        <mxCell id="i0heIdK5ktboHPrzZAo5-196" style="edgeStyle=orthogonalEdgeStyle;rounded=0;orthogonalLoop=1;jettySize=auto;html=1;strokeWidth=3;fontSize=11;endArrow=classic;endFill=1;" edge="1" parent="1" source="i0heIdK5ktboHPrzZAo5-162" target="i0heIdK5ktboHPrzZAo5-158">
          <mxGeometry relative="1" as="geometry" />
        </mxCell>
        <mxCell id="i0heIdK5ktboHPrzZAo5-162" value="Comprehension&amp;nbsp;&lt;br&gt;Assessment&amp;nbsp;" style="rounded=0;whiteSpace=wrap;html=1;" vertex="1" parent="1">
          <mxGeometry x="-505" y="-920" width="120" height="60" as="geometry" />
        </mxCell>
        <mxCell id="i0heIdK5ktboHPrzZAo5-185" style="edgeStyle=orthogonalEdgeStyle;rounded=0;orthogonalLoop=1;jettySize=auto;html=1;strokeWidth=1;fontSize=11;endArrow=classic;endFill=1;entryX=0.25;entryY=0;entryDx=0;entryDy=0;" edge="1" parent="1" source="i0heIdK5ktboHPrzZAo5-163" target="i0heIdK5ktboHPrzZAo5-83">
          <mxGeometry relative="1" as="geometry">
            <mxPoint x="-1080" y="850" as="targetPoint" />
            <Array as="points">
              <mxPoint x="-1280" y="-550" />
            </Array>
          </mxGeometry>
        </mxCell>
        <mxCell id="i0heIdK5ktboHPrzZAo5-163" value="Disclaimer* : comprehension assesment will count for final" style="rounded=0;whiteSpace=wrap;html=1;" vertex="1" parent="1">
          <mxGeometry x="-780" y="-590" width="120" height="60" as="geometry" />
        </mxCell>
        <mxCell id="i0heIdK5ktboHPrzZAo5-182" style="edgeStyle=orthogonalEdgeStyle;rounded=0;orthogonalLoop=1;jettySize=auto;html=1;entryX=0.25;entryY=1;entryDx=0;entryDy=0;strokeWidth=1;fontSize=11;endArrow=classic;endFill=1;" edge="1" parent="1" source="i0heIdK5ktboHPrzZAo5-164" target="i0heIdK5ktboHPrzZAo5-163">
          <mxGeometry relative="1" as="geometry">
            <Array as="points">
              <mxPoint x="-750" y="-415" />
            </Array>
          </mxGeometry>
        </mxCell>
        <mxCell id="i0heIdK5ktboHPrzZAo5-187" style="edgeStyle=orthogonalEdgeStyle;rounded=0;orthogonalLoop=1;jettySize=auto;html=1;exitX=1;exitY=0.5;exitDx=0;exitDy=0;strokeWidth=1;fontSize=11;endArrow=classic;endFill=1;" edge="1" parent="1" source="i0heIdK5ktboHPrzZAo5-164" target="i0heIdK5ktboHPrzZAo5-183">
          <mxGeometry relative="1" as="geometry" />
        </mxCell>
        <mxCell id="i0heIdK5ktboHPrzZAo5-164" value="Did user finish lesson plan?" style="rhombus;whiteSpace=wrap;html=1;rounded=0;fillColor=#fff2cc;strokeColor=#d6b656;" vertex="1" parent="1">
          <mxGeometry x="-728" y="-460" width="116" height="90" as="geometry" />
        </mxCell>
        <mxCell id="i0heIdK5ktboHPrzZAo5-167" style="edgeStyle=orthogonalEdgeStyle;rounded=0;orthogonalLoop=1;jettySize=auto;html=1;entryX=1;entryY=1;entryDx=0;entryDy=0;strokeWidth=3;fontSize=11;endArrow=classic;endFill=1;" edge="1" parent="1" source="i0heIdK5ktboHPrzZAo5-165" target="i0heIdK5ktboHPrzZAo5-107">
          <mxGeometry relative="1" as="geometry" />
        </mxCell>
        <mxCell id="i0heIdK5ktboHPrzZAo5-165" value="Did User finish&lt;br&gt;&amp;nbsp;lesson Plan?" style="rhombus;whiteSpace=wrap;html=1;rounded=0;fillColor=#fff2cc;strokeColor=#d6b656;" vertex="1" parent="1">
          <mxGeometry x="-90" y="-100" width="120" height="90" as="geometry" />
        </mxCell>
        <mxCell id="i0heIdK5ktboHPrzZAo5-170" value="OTHER STUFF" style="verticalLabelPosition=bottom;verticalAlign=top;html=1;shape=offPageConnector;rounded=0;size=0.5;strokeWidth=2;fontSize=11;fillColor=#f8cecc;strokeColor=#b85450;" vertex="1" parent="1">
          <mxGeometry x="-1035" y="1100" width="60" height="60" as="geometry" />
        </mxCell>
        <mxCell id="i0heIdK5ktboHPrzZAo5-175" value="OTHER STUFF" style="verticalLabelPosition=bottom;verticalAlign=top;html=1;shape=offPageConnector;rounded=0;size=0.5;strokeWidth=2;fontSize=11;fillColor=#f8cecc;strokeColor=#b85450;" vertex="1" parent="1">
          <mxGeometry x="-565" y="930" width="95" height="100" as="geometry" />
        </mxCell>
        <mxCell id="i0heIdK5ktboHPrzZAo5-193" style="edgeStyle=orthogonalEdgeStyle;rounded=0;orthogonalLoop=1;jettySize=auto;html=1;strokeWidth=3;fontSize=11;endArrow=classic;endFill=1;" edge="1" parent="1" source="i0heIdK5ktboHPrzZAo5-183" target="i0heIdK5ktboHPrzZAo5-161">
          <mxGeometry relative="1" as="geometry" />
        </mxCell>
        <mxCell id="i0heIdK5ktboHPrzZAo5-183" value="Disclaimer: &amp;nbsp;comprehension assessment will count &amp;nbsp;as final score for lesson" style="rounded=0;whiteSpace=wrap;html=1;" vertex="1" parent="1">
          <mxGeometry x="-585" y="-600" width="135" height="80" as="geometry" />
        </mxCell>
        <mxCell id="i0heIdK5ktboHPrzZAo5-186" value="User is &lt;br&gt;redirected to&lt;br&gt;&amp;nbsp;Practice Comp&amp;nbsp;" style="rhombus;whiteSpace=wrap;html=1;rounded=0;fillColor=#fff2cc;strokeColor=#d6b656;" vertex="1" parent="1">
          <mxGeometry x="-975" y="-607" width="146" height="115" as="geometry" />
        </mxCell>
        <mxCell id="i0heIdK5ktboHPrzZAo5-189" value="OTHER STUFF" style="verticalLabelPosition=bottom;verticalAlign=top;html=1;shape=offPageConnector;rounded=0;size=0.5;strokeWidth=2;fontSize=11;fillColor=#f8cecc;strokeColor=#b85450;" vertex="1" parent="1">
          <mxGeometry x="-170" y="-430" width="60" height="60" as="geometry" />
        </mxCell>
        <mxCell id="i0heIdK5ktboHPrzZAo5-201" style="edgeStyle=orthogonalEdgeStyle;rounded=0;orthogonalLoop=1;jettySize=auto;html=1;strokeWidth=3;fontSize=11;endArrow=classic;endFill=1;" edge="1" parent="1" source="i0heIdK5ktboHPrzZAo5-191" target="i0heIdK5ktboHPrzZAo5-200">
          <mxGeometry relative="1" as="geometry">
            <Array as="points">
              <mxPoint x="140" y="-860" />
            </Array>
          </mxGeometry>
        </mxCell>
        <mxCell id="i0heIdK5ktboHPrzZAo5-191" value="Comprehension Questions" style="rounded=0;whiteSpace=wrap;html=1;" vertex="1" parent="1">
          <mxGeometry x="-40" y="-890" width="120" height="60" as="geometry" />
        </mxCell>
        <mxCell id="i0heIdK5ktboHPrzZAo5-198" style="edgeStyle=orthogonalEdgeStyle;rounded=0;orthogonalLoop=1;jettySize=auto;html=1;entryX=0;entryY=0.5;entryDx=0;entryDy=0;strokeWidth=3;fontSize=11;endArrow=classic;endFill=1;" edge="1" parent="1" source="i0heIdK5ktboHPrzZAo5-192" target="i0heIdK5ktboHPrzZAo5-191">
          <mxGeometry relative="1" as="geometry" />
        </mxCell>
        <mxCell id="i0heIdK5ktboHPrzZAo5-192" value="User finishes&lt;br&gt;&amp;nbsp;Reading" style="rhombus;whiteSpace=wrap;html=1;rounded=0;fillColor=#fff2cc;strokeColor=#d6b656;" vertex="1" parent="1">
          <mxGeometry x="-195" y="-935" width="115" height="90" as="geometry" />
        </mxCell>
        <mxCell id="i0heIdK5ktboHPrzZAo5-206" style="edgeStyle=orthogonalEdgeStyle;rounded=0;orthogonalLoop=1;jettySize=auto;html=1;strokeWidth=3;fontSize=11;endArrow=classic;endFill=1;" edge="1" parent="1" source="i0heIdK5ktboHPrzZAo5-199" target="i0heIdK5ktboHPrzZAo5-160">
          <mxGeometry relative="1" as="geometry" />
        </mxCell>
        <mxCell id="i0heIdK5ktboHPrzZAo5-199" value="Comprehension Summary" style="rounded=0;whiteSpace=wrap;html=1;" vertex="1" parent="1">
          <mxGeometry x="-70" y="-800" width="100" height="60" as="geometry" />
        </mxCell>
        <mxCell id="i0heIdK5ktboHPrzZAo5-202" style="edgeStyle=orthogonalEdgeStyle;rounded=0;orthogonalLoop=1;jettySize=auto;html=1;exitX=0;exitY=1;exitDx=0;exitDy=0;strokeWidth=3;fontSize=11;endArrow=classic;endFill=1;" edge="1" parent="1" source="i0heIdK5ktboHPrzZAo5-200" target="i0heIdK5ktboHPrzZAo5-199">
          <mxGeometry relative="1" as="geometry" />
        </mxCell>
        <mxCell id="i0heIdK5ktboHPrzZAo5-200" value="User Answers all &lt;br&gt;10 questions" style="rhombus;whiteSpace=wrap;html=1;rounded=0;fillColor=#fff2cc;strokeColor=#d6b656;" vertex="1" parent="1">
          <mxGeometry x="60" y="-840" width="120" height="90" as="geometry" />
        </mxCell>
        <mxCell id="i0heIdK5ktboHPrzZAo5-208" style="edgeStyle=orthogonalEdgeStyle;rounded=0;orthogonalLoop=1;jettySize=auto;html=1;exitX=1;exitY=1;exitDx=0;exitDy=0;entryX=0;entryY=0.5;entryDx=0;entryDy=0;strokeWidth=3;fontSize=11;endArrow=classic;endFill=1;" edge="1" parent="1" source="i0heIdK5ktboHPrzZAo5-203" target="i0heIdK5ktboHPrzZAo5-205">
          <mxGeometry relative="1" as="geometry" />
        </mxCell>
        <mxCell id="i0heIdK5ktboHPrzZAo5-203" value="User Submits&amp;nbsp;" style="rhombus;whiteSpace=wrap;html=1;rounded=0;fillColor=#fff2cc;strokeColor=#d6b656;" vertex="1" parent="1">
          <mxGeometry x="-290" y="-710" width="120" height="90" as="geometry" />
        </mxCell>
        <mxCell id="i0heIdK5ktboHPrzZAo5-215" style="edgeStyle=orthogonalEdgeStyle;rounded=0;orthogonalLoop=1;jettySize=auto;html=1;strokeWidth=3;fontSize=13;endArrow=classic;endFill=1;" edge="1" parent="1" source="i0heIdK5ktboHPrzZAo5-205" target="i0heIdK5ktboHPrzZAo5-212">
          <mxGeometry relative="1" as="geometry">
            <Array as="points">
              <mxPoint x="85" y="-650" />
            </Array>
          </mxGeometry>
        </mxCell>
        <mxCell id="i0heIdK5ktboHPrzZAo5-205" value="Completion &lt;br&gt;Feedback&amp;nbsp;&lt;br&gt;Page" style="rounded=0;whiteSpace=wrap;html=1;" vertex="1" parent="1">
          <mxGeometry x="-110" y="-673" width="120" height="60" as="geometry" />
        </mxCell>
        <mxCell id="i0heIdK5ktboHPrzZAo5-210" value="&lt;font style=&quot;font-size: 13px;&quot;&gt;Task Finished&lt;/font&gt;" style="strokeWidth=2;html=1;shape=mxgraph.flowchart.terminator;whiteSpace=wrap;rounded=0;fontSize=11;fillColor=#f5f5f5;fontColor=#333333;strokeColor=#666666;" vertex="1" parent="1">
          <mxGeometry x="20" y="-410" width="130" height="70" as="geometry" />
        </mxCell>
        <mxCell id="i0heIdK5ktboHPrzZAo5-216" style="edgeStyle=orthogonalEdgeStyle;rounded=0;orthogonalLoop=1;jettySize=auto;html=1;strokeWidth=3;fontSize=13;endArrow=classic;endFill=1;" edge="1" parent="1" source="i0heIdK5ktboHPrzZAo5-212" target="i0heIdK5ktboHPrzZAo5-210">
          <mxGeometry relative="1" as="geometry" />
        </mxCell>
        <mxCell id="i0heIdK5ktboHPrzZAo5-212" value="&lt;font style=&quot;font-size: 16px;&quot;&gt;Results seen in&lt;br&gt;&amp;nbsp;Lessons Page, &lt;br&gt;and &amp;nbsp;Grades Page&lt;/font&gt;" style="shape=parallelogram;html=1;strokeWidth=2;perimeter=parallelogramPerimeter;whiteSpace=wrap;rounded=1;arcSize=12;size=0.23;fontSize=11;fillColor=#f5f5f5;fontColor=#333333;strokeColor=#666666;" vertex="1" parent="1">
          <mxGeometry x="-40" y="-600" width="250" height="130" as="geometry" />
        </mxCell>
        <mxCell id="i0heIdK5ktboHPrzZAo5-213" value="Grades Page" style="rounded=0;whiteSpace=wrap;html=1;" vertex="1" parent="1">
          <mxGeometry x="-760" y="590" width="120" height="60" as="geometry" />
        </mxCell>
      </root>
    </mxGraphModel>
  </diagram>
</mxfile>
